<?xml version="1.0" ?><svg data-name="Layer 1" id="Layer_1" viewBox="0 0 500 500" xmlns="http://www.w3.org/2000/svg"><defs><style>.cls-1{fill:#b22424;}.cls-2{fill:#dd2c28;}.cls-3{fill:#fff;}</style></defs><title/><circle class="cls-1" cx="250" cy="250" r="250"/><circle class="cls-2" cx="250" cy="250" r="203.65"/><path class="cls-3" d="M187.49,364a28.36,28.36,0,0,1-28.26-28.3V164.29a28.26,28.26,0,0,1,42.39-24.48l148.44,85.71a28.26,28.26,0,0,1,0,49L201.63,360.18A28.23,28.23,0,0,1,187.49,364Zm0-203a3.28,3.28,0,0,0-1.64.46,3.11,3.11,0,0,0-1.63,2.82V335.71a3.12,3.12,0,0,0,1.63,2.83,3.06,3.06,0,0,0,3.26,0l148.44-85.71a3.25,3.25,0,0,0,0-5.64L189.13,161.47A3.22,3.22,0,0,0,187.5,161Z"/></svg>