<?xml version="1.0" ?><svg data-name="Layer 1" id="Layer_1" viewBox="0 0 500 500" xmlns="http://www.w3.org/2000/svg"><defs><style>.cls-1{fill:#7a7a7a;}.cls-2{fill:#a5a5a5;}.cls-3{fill:#fff;}</style></defs><title/><circle class="cls-1" cx="250" cy="250" r="250"/><circle class="cls-2" cx="250" cy="250" r="203.65"/><path class="cls-2" d="M355.33,178.32h-3.7a117.51,117.51,0,0,0-203.27,0h-3.7a30.89,30.89,0,0,0-30.89,30.89v105a30.89,30.89,0,0,0,30.89,30.89h57.78a117.14,117.14,0,0,0,95.12,0h57.78a30.89,30.89,0,0,0,30.89-30.89v-105A30.89,30.89,0,0,0,355.33,178.32Z"/><path class="cls-3" d="M250,367.71a129,129,0,0,1-50.13-10.09h-55.2a43.44,43.44,0,0,1-43.39-43.39v-105a43.45,43.45,0,0,1,40.07-43.27,130,130,0,0,1,217.31,0,43.45,43.45,0,0,1,40.07,43.27v105a43.44,43.44,0,0,1-43.39,43.39h-55.2A129,129,0,0,1,250,367.71ZM144.66,190.82a18.42,18.42,0,0,0-18.39,18.4v105a18.41,18.41,0,0,0,18.39,18.39h60.42l2.42,1.07a105,105,0,0,0,85,0l2.42-1.07h60.42a18.41,18.41,0,0,0,18.39-18.39v-105a18.42,18.42,0,0,0-18.39-18.4H344.46l-3.62-6.2a105,105,0,0,0-181.68,0l-3.62,6.2Z"/><circle class="cls-2" cx="250" cy="237.5" r="49.14"/><path class="cls-3" d="M250,299.13a61.64,61.64,0,1,1,61.64-61.63A61.7,61.7,0,0,1,250,299.13Zm0-98.27a36.64,36.64,0,1,0,36.64,36.64A36.68,36.68,0,0,0,250,200.86Z"/></svg>