<?xml version="1.0" ?><svg enable-background="new 0 0 32 32" version="1.1" viewBox="0 0 32 32" xml:space="preserve" xmlns="http://www.w3.org/2000/svg" xmlns:xlink="http://www.w3.org/1999/xlink"><g id="Flat_copy"><g><path d="M16.005-0.005c-8.837,0-16,7.163-16,16c0,8.836,7.163,16,16,16s16-7.164,16-16    C32.005,7.158,24.842-0.005,16.005-0.005z" fill="#333333"/></g><g><path d="M16.026,20.863c-0.965,0-1.843-0.26-2.636-0.779c-0.792-0.52-1.386-1.188-1.782-2.004l-3.897-6.83    C6.895,12.709,6.524,14.342,6.524,16c0,2.376,0.773,4.448,2.32,6.217s3.471,2.827,5.772,3.174l2.756-4.77    C17.094,20.703,16.632,20.863,16.026,20.863z" fill="#FFFFFF"/><path d="M13.038,12.158c0.878-0.68,1.874-0.909,2.988-0.909c0.148,0,8.166,0,8.166,0    c-0.842-1.435-1.986-2.648-3.433-3.489c-1.448-0.841-3.025-1.262-4.733-1.262c-1.485,0-2.871,0.315-4.157,0.947    c-1.287,0.631-2.478,1.549-3.35,2.728l2.756,4.639C11.547,13.749,12.159,12.839,13.038,12.158z" fill="#FFFFFF"/><path d="M24.814,12.437h-5.521c0.965,0.965,1.596,2.203,1.596,3.563c0,1.015-0.284,1.943-0.854,2.784l-3.897,6.718    c2.598-0.025,4.813-0.965,6.644-2.821c1.83-1.856,2.746-4.083,2.746-6.681C25.528,14.788,25.324,13.513,24.814,12.437z" fill="#FFFFFF"/><circle cx="16.026" cy="16" fill="#FFFFFF" r="3.563"/></g></g></svg>