<?xml version="1.0" ?><svg data-name="Layer 1" id="Layer_1" viewBox="0 0 500 500" xmlns="http://www.w3.org/2000/svg"><defs><style>.cls-1{fill:#bc2f2f;}.cls-2{fill:#e53e3e;}.cls-3{fill:#fff;}</style></defs><title/><circle class="cls-1" cx="250" cy="250" r="250"/><circle class="cls-2" cx="250" cy="250" r="203.65"/><circle class="cls-3" cx="246.76" cy="385.58" r="21.84"/><path class="cls-3" d="M246.76,344.64c-55.39,0-100.45-42.19-100.45-94a12.5,12.5,0,0,1,25,0c0,38.07,33.85,69,75.45,69s75.45-31,75.45-69a12.5,12.5,0,0,1,25,0C347.21,302.45,302.15,344.64,246.76,344.64Z"/><path class="cls-3" d="M254.18,111.34a24.25,24.25,0,0,1,24.22,24.22v116a24.25,24.25,0,0,1-24.22,24.22H239.34a24.25,24.25,0,0,1-24.22-24.22v-116a24.25,24.25,0,0,1,24.22-24.22h14.84m0-18.75H239.34a43,43,0,0,0-43,43v116a43,43,0,0,0,43,43h14.84a43,43,0,0,0,43-43v-116a43,43,0,0,0-43-43Z"/></svg>