<?xml version="1.0" ?><svg data-name="Layer 1" id="Layer_1" viewBox="0 0 500 500" xmlns="http://www.w3.org/2000/svg"><defs><style>.cls-1{fill:#2d6dba;}.cls-2{fill:#3b7ff3;}.cls-3{fill:#fff;}</style></defs><title/><circle class="cls-1" cx="250" cy="250" r="250"/><circle class="cls-2" cx="250" cy="250" r="203.65"/><path class="cls-3" d="M250.3,404.49A154.5,154.5,0,0,1,95.93,244c3-79.64,67.69-144.81,147.3-148.35a152.47,152.47,0,0,1,95.38,27.58,12.54,12.54,0,0,1,2.21,1.76c14.62,15.86,14.44,40.51-.05,55.32-.23.24-.48.46-.73.68-13,12.65-32.39,14.06-52.12,3.8l-.64-.31a75.2,75.2,0,0,0-91.77,117,74.53,74.53,0,0,0,54.79,23.68,75.6,75.6,0,0,0,61.36-31.79H285.27a39.14,39.14,0,1,1,0-78.27h72.08a47.13,47.13,0,0,1,34.94,15.55,46,46,0,0,1,11.65,35.46h0a154.71,154.71,0,0,1-2.81,17.47C385.59,353.64,322.16,404.49,250.3,404.49Zm.09-284q-3,0-6,.13c-66.71,3-120.93,57.58-123.43,124.32A129.49,129.49,0,0,0,250.3,379.49c60.24,0,113.4-42.6,126.42-101.3a130.91,130.91,0,0,0,2.36-14.63h0a20.68,20.68,0,0,0-5.35-16.15,22.08,22.08,0,0,0-16.38-7.29H285.27a14.14,14.14,0,1,0,0,28.27h47.06A12.53,12.53,0,0,1,344,285.32,100.21,100.21,0,0,1,177.3,318.63,100.19,100.19,0,0,1,298.63,162.22l.57.28c4.74,2.51,16.51,7.53,23.57.43q.23-.24.48-.46c4.63-5,4.77-13.53.33-19.23A127.92,127.92,0,0,0,250.38,120.51Z"/></svg>