<?xml version="1.0" ?><svg data-name="Layer 1" id="Layer_1" viewBox="0 0 500 500" xmlns="http://www.w3.org/2000/svg"><defs><style>.cls-1{fill:#256d2f;}.cls-2{fill:#34933d;}.cls-3{fill:#fff;}</style></defs><title/><circle class="cls-1" cx="250" cy="250" r="250"/><circle class="cls-2" cx="250" cy="250" r="203.65"/><path class="cls-3" d="M244.63,115.58h15.7a12.9,12.9,0,0,0,1.78.39,126.73,126.73,0,0,1,38.22,8.94,125.46,125.46,0,0,1,53.53,41,122.1,122.1,0,0,1,24.24,59c.37,2.92.8,5.84,1.2,8.76v15.7a13.28,13.28,0,0,0-.39,1.78,128,128,0,0,1-8.06,35.48,125.65,125.65,0,0,1-28.67,43.86,123.33,123.33,0,0,1-27,20.49,128.09,128.09,0,0,1-122.64,1.58,4.46,4.46,0,0,0-3.07-.27c-7.5,2.29-15,4.71-22.42,7.09-11,3.5-22,7-33,10.52-4.17,1.34-8.3,2.81-12.44,4.21l-.83-.83c.44-1,1-1.94,1.32-3,2.81-8.27,5.59-16.55,8.39-24.82,4.21-12.44,8.47-24.86,12.61-37.32a4.82,4.82,0,0,0-.31-3.26c-1.53-3.22-3.34-6.31-4.93-9.5a125,125,0,0,1,12.95-129.39,127.09,127.09,0,0,1,84.52-49.28Zm-92,227.28c1.87-.54,3.38-.94,4.85-1.41,11.47-3.64,22.92-7.32,34.41-10.88a4.78,4.78,0,0,1,3.23.34c4.85,2.43,9.5,5.27,14.43,7.5,17.68,8,36.27,10.38,55.45,8.27a103.54,103.54,0,0,0,40.8-13.6A106.28,106.28,0,0,0,340.56,301a104.93,104.93,0,0,0,15.11-86.08c-6.14-23.08-18.84-42-37.65-56.69a103.45,103.45,0,0,0-42.73-20.09c-25.64-5.43-50.11-2.19-73.26,10.06A105.4,105.4,0,0,0,163,183.84a103.5,103.5,0,0,0-14.72,34.31,106.75,106.75,0,0,0-2.38,29.94,103,103,0,0,0,5.29,27,107.64,107.64,0,0,0,13.78,27.13,3.82,3.82,0,0,1,.42,3c-3.3,10-6.72,19.94-10.11,29.9C154.4,337.57,153.6,340,152.66,342.86Z"/><path class="cls-3" d="M120.7,377.75,117,374l1.35-2.93a15.71,15.71,0,0,0,.75-1.72l11.48-33.91c3.19-9.39,6.38-18.79,9.51-28.2a2.08,2.08,0,0,0-.17-.94c-.84-1.77-1.77-3.5-2.7-5.23-.75-1.4-1.5-2.79-2.2-4.21-7-14.15-11.1-29.44-12.4-46.75a128.62,128.62,0,0,1,25.65-85.92,130.19,130.19,0,0,1,86.6-50.49l9.78-1.26,17.06.24a3.82,3.82,0,0,0,.67.16,130,130,0,0,1,94,51.18,125.62,125.62,0,0,1,24.85,60.52c.26,2,.54,4,.82,6l.38,2.71,0,16.47-.25,1a3.83,3.83,0,0,0-.16.68,131.73,131.73,0,0,1-8.26,36.33,129.39,129.39,0,0,1-29.38,44.94,126.67,126.67,0,0,1-27.7,21A129.59,129.59,0,0,1,257,370.51a130.93,130.93,0,0,1-66-15.13,1.37,1.37,0,0,0-.7,0c-5.77,1.76-11.52,3.6-17.27,5.44l-15.33,4.88q-11.4,3.62-22.78,7.26c-2.86.92-5.7,1.9-8.54,2.88Zm124.13-259-9.19,1.21A123.89,123.89,0,0,0,153.22,168a122.34,122.34,0,0,0-24.4,81.68c1.23,16.49,5.08,31,11.75,44.43.68,1.35,1.4,2.7,2.12,4,1,1.82,2,3.65,2.84,5.52a7.92,7.92,0,0,1,.45,5.59c-3.12,9.42-6.32,18.82-9.52,28.23l-10.82,32c2.45-.85,4.91-1.68,7.38-2.48q11.4-3.66,22.81-7.28l15.32-4.88c5.77-1.85,11.55-3.7,17.36-5.47a7.57,7.57,0,0,1,5.43.49A125,125,0,0,0,313.6,348.3a120.29,120.29,0,0,0,26.34-20,123.08,123.08,0,0,0,28-42.78,125.31,125.31,0,0,0,7.87-34.62,10.54,10.54,0,0,1,.35-1.76l0-15.46-.35-2.26c-.29-2-.57-4.06-.83-6.09a119.4,119.4,0,0,0-23.63-57.54,122.75,122.75,0,0,0-52.22-40,124.1,124.1,0,0,0-37.27-8.72,10.51,10.51,0,0,1-1.79-.34Zm7.28,231.82a105.18,105.18,0,0,1-43.8-9.28c-3-1.35-5.9-2.92-8.8-4.5-1.9-1-3.81-2.07-5.75-3a1.59,1.59,0,0,0-.92-.15c-8.41,2.6-16.82,5.28-25.21,8l-9.16,2.92c-1,.32-2,.6-3.13.92l-7.52,2.17,7.12-21.2c2.5-7.35,5-14.7,7.45-22.08a115,115,0,0,1-14.19-28.1,106.4,106.4,0,0,1-5.44-27.87,110.71,110.71,0,0,1,2.45-30.82,107,107,0,0,1,15.16-35.34,108.78,108.78,0,0,1,40.22-36.65c23.57-12.48,48.93-16,75.37-10.36a108.5,108.5,0,0,1,67.19,167.69,109.64,109.64,0,0,1-35.72,33,107.09,107.09,0,0,1-42,14A121.12,121.12,0,0,1,252.11,350.53ZM193,327.3a8,8,0,0,1,3.56.82c2,1,4,2.06,5.93,3.14,2.76,1.5,5.53,3,8.39,4.3,16.44,7.45,34.56,10.16,53.82,8a100.89,100.89,0,0,0,39.58-13.2A103.45,103.45,0,0,0,338,299.25a101.78,101.78,0,0,0,14.67-83.5,104.08,104.08,0,0,0-78-74.52c-25-5.3-48.93-2-71.15,9.77a102.69,102.69,0,0,0-37.93,34.56,101,101,0,0,0-14.28,33.29,104.27,104.27,0,0,0-2.3,29.07,100.39,100.39,0,0,0,5.13,26.23,105,105,0,0,0,13.39,26.34,6.89,6.89,0,0,1,.82,5.7c-2.45,7.4-5,14.77-7.47,22.14l-3.33,9.84,8.21-2.61c8.42-2.69,16.84-5.36,25.28-8A6.67,6.67,0,0,1,193,327.3Z"/><path class="cls-3" d="M212.93,184.24c1.29,0,2.53-.06,3.76,0,1.88.11,3.56.72,4.41,2.55,1.59,3.42,3.16,6.86,4.65,10.32,2.12,4.92,4,10,6.28,14.8,1.5,3.2.8,6-1,8.51-2.09,2.89-4.42,5.61-6.73,8.34-1.83,2.16-2.13,4-.68,6.36,8.16,13.31,18.6,24.32,32.52,31.71,3.45,1.83,7.06,3.4,10.67,4.91,2.63,1.1,4.18.57,6-1.65q4.63-5.66,9.22-11.36c2.11-2.63,3.8-3.29,6.82-1.9,8.55,3.94,17,8,25.54,12.05a4.07,4.07,0,0,1,2.49,4.12A31.83,31.83,0,0,1,314,286.41c-1.6,3.35-4.35,5.65-7.3,7.67-8.43,5.77-17.6,8.48-27.72,5.62-6.67-1.89-13.23-4.18-19.78-6.49-15.25-5.38-27.82-14.78-38.89-26.35a155.82,155.82,0,0,1-23.41-31.25c-5.31-9.43-7.85-19.5-5.47-30.36a33.72,33.72,0,0,1,11.77-18.91C206,184,209.46,183.75,212.93,184.24Z"/><path class="cls-3" d="M287,304a32.42,32.42,0,0,1-8.87-1.25c-6.64-1.88-13-4.08-20-6.54C243.77,291.09,230.66,282.22,218,269a159.6,159.6,0,0,1-23.88-31.88c-6.26-11.13-8.16-21.78-5.79-32.57A36.84,36.84,0,0,1,201.17,184c3.06-2.57,7-3.49,12-2.84H214c1,0,1.9,0,2.83,0,4.27.25,6.2,2.5,7.06,4.35,1.61,3.45,3.18,6.92,4.68,10.41.8,1.85,1.56,3.71,2.33,5.57,1.26,3.07,2.51,6.13,3.92,9.14,1.85,4,1.39,7.88-1.35,11.66-1.92,2.65-4,5.16-6.15,7.67l-.73.85c-1.14,1.35-1,1.73-.41,2.7,8.54,13.93,18.78,23.93,31.32,30.58,3.44,1.82,7,3.38,10.41,4.78,1.18.51,1.31.56,2.37-.74q4.62-5.65,9.19-11.33c2.09-2.6,5.18-5.24,10.57-2.78s10.72,5,16.06,7.56l9.5,4.5a7.21,7.21,0,0,1,4.29,7,34.87,34.87,0,0,1-3.15,14.7c-2,4.17-5.35,6.84-8.36,8.9C301.33,301.51,294.15,304,287,304Zm-76.79-116.8a7.43,7.43,0,0,0-5,1.59,30.73,30.73,0,0,0-10.72,17.18c-2,9.23-.34,18.44,5.13,28.17a153.35,153.35,0,0,0,23,30.62c11.93,12.47,24.26,20.83,37.66,25.56,6.9,2.44,13.12,4.6,19.59,6.42,8.34,2.35,16.55.67,25.1-5.19,2.32-1.59,4.88-3.6,6.24-6.45a28.33,28.33,0,0,0,2.54-12.1c0-.83-.17-1-.7-1.25l-9.53-4.51c-5.32-2.53-10.64-5.06-16-7.53-1.43-.66-1.66-.76-3.08,1-3,3.8-6.14,7.6-9.23,11.38-1.73,2.11-4.59,4.66-9.61,2.55-3.52-1.46-7.28-3.08-10.93-5-13.55-7.19-24.58-17.93-33.72-32.83-2.12-3.45-1.81-6.73,1-10l.73-.86c2-2.38,4-4.77,5.85-7.29,1.4-1.94,1.62-3.49.75-5.35-1.45-3.09-2.74-6.25-4-9.41-.74-1.83-1.5-3.66-2.28-5.48-1.48-3.44-3-6.84-4.61-10.24-.12-.24-.31-.67-1.76-.75-.78,0-1.57,0-2.38,0h-1.42l-.21,0A16.71,16.71,0,0,0,210.19,187.15Z"/></svg>