<?xml version="1.0" ?><svg data-name="Layer 1" id="Layer_1" viewBox="0 0 500 500" xmlns="http://www.w3.org/2000/svg"><defs><style>.cls-1{fill:#2495bc;}.cls-2{fill:#28aae1;}.cls-3{fill:#fff;}</style></defs><title/><circle class="cls-1" cx="250" cy="250" r="250"/><circle class="cls-2" cx="250" cy="250" r="203.65"/><path class="cls-3" d="M213,374.69h-8a9.85,9.85,0,0,1-1.41-.1l-.1,0L200,374.4c-3.74-.16-7.7-.51-12.08-1.06-4.08-.51-8.3-1.22-12.54-2.09a164.86,164.86,0,0,1-25.94-7.59,167.15,167.15,0,0,1-29.13-14.6l-.71-.47a9.53,9.53,0,0,1-3.55-11,9.38,9.38,0,0,1,9.63-6.15,105.76,105.76,0,0,0,39.41-3.28,99.49,99.49,0,0,0,16.78-6.39,64.82,64.82,0,0,1-35.94-38.62c-.08-.22-.3-1-.36-1.21a9.64,9.64,0,0,1,2.12-8.86l.27-.28a64.91,64.91,0,0,1-15.81-20.64,67.25,67.25,0,0,1-4.88-13.93c0-.11-2.62-12.29-1-17.46a9.4,9.4,0,0,1,7.3-6.48,63.54,63.54,0,0,1-2.84-6.18,64.58,64.58,0,0,1,4.15-56.27,9.37,9.37,0,0,1,15.36-1.22,150.36,150.36,0,0,0,22,21.86,148.39,148.39,0,0,0,25.88,16.72,146.58,146.58,0,0,0,48.13,14.75q-.09-2.68,0-5.38a62.61,62.61,0,0,1,1.53-11.29,64.18,64.18,0,0,1,21.91-35.48,63.53,63.53,0,0,1,24.74-12.69,65.75,65.75,0,0,1,13-2l.35-.07a9.1,9.1,0,0,1,1.47-.12h3a9.24,9.24,0,0,1,1.59.13l.27,0a67.23,67.23,0,0,1,8.85,1.07,64.55,64.55,0,0,1,26.88,12q2.21,1.67,4.21,3.47l1.46-.36a101.42,101.42,0,0,0,25.29-10.46l1-.53a9.46,9.46,0,0,1,10.36,1.21,9.35,9.35,0,0,1,2.91,9.94l-.27.86a62,62,0,0,1-4,9.34,9.38,9.38,0,0,1,11.46,11.57,13.32,13.32,0,0,1-1.58,3.38l-1.37,1.91c-1,1.35-2,2.72-3,4a119.16,119.16,0,0,1-19.48,19.87l-1.27,1c0,4.26,0,9.31-.42,14.39-.31,3.88-.73,7.74-1.29,11.58-.69,4.75-1.61,9.58-2.75,14.37a175.21,175.21,0,0,1-22.52,53.42A166.75,166.75,0,0,1,320.19,333a159.48,159.48,0,0,1-22.26,16.94,156,156,0,0,1-25.53,13,163.24,163.24,0,0,1-33,9.23C234.15,373,229,373.66,224,374c-2,.16-4,.26-6,.35l-3.56.21-.66.05C213.51,374.68,213.26,374.69,213,374.69ZM212.24,356l.76,9.34Zm-6.53,0,11.41-.27c1.81-.09,3.62-.16,5.43-.31,4.43-.35,9-.93,13.69-1.72a143.85,143.85,0,0,0,29.24-8.16,136.58,136.58,0,0,0,22.46-11.42,140,140,0,0,0,19.64-14.94A148,148,0,0,0,332.79,289a156.44,156.44,0,0,0,20.1-47.67c1-4.26,1.83-8.54,2.44-12.75q.75-5.16,1.15-10.37c.44-5.51.41-11,.32-15.59a10.27,10.27,0,0,1,4.19-9.78c1.21-.9,2.43-1.81,3.61-2.75l-1.27.16a9.41,9.41,0,0,1-9.5-5.11,9.55,9.55,0,0,1,2.88-12c.35-.26.68-.49,1-.71s.84-.53,1.26-.81c-.81.2-1.64.39-2.47.57l-2.4.56a10.52,10.52,0,0,1-10.25-3,42.17,42.17,0,0,0-5.32-4.76,45.38,45.38,0,0,0-19.11-8.5,49.6,49.6,0,0,0-6.77-.78c-.29,0-.77-.07-1.21-.13h-1.33a11.38,11.38,0,0,1-1.37.14,47,47,0,0,0-9.57,1.45A46,46,0,0,0,266,191.51a43.88,43.88,0,0,0-1.06,7.93,45.49,45.49,0,0,0,1,12c.05.24.17.92.21,1.16a9.7,9.7,0,0,1-2.33,7.8,9.48,9.48,0,0,1-7.37,3.2,165.46,165.46,0,0,1-66.91-17.74A166.81,166.81,0,0,1,146,174l0,.07a45.91,45.91,0,0,0,19.24,48.28,9.38,9.38,0,0,1-2.47,16.72c-4.15,1.29-12.39-.34-16.18-1.21A45.15,45.15,0,0,0,149,244a46.18,46.18,0,0,0,13.13,16.22,46.47,46.47,0,0,0,9,5.5,54.18,54.18,0,0,0,10.21,3.42,9.37,9.37,0,0,1,.49,18.11,57.9,57.9,0,0,1-11.78,2.15c.41.56.84,1.12,1.28,1.66a45.46,45.46,0,0,0,19,13.94,44.06,44.06,0,0,0,9.9,2.64,39.09,39.09,0,0,0,4.77.45,14.74,14.74,0,0,1,3.53.54A9.38,9.38,0,0,1,211.75,325a119.15,119.15,0,0,1-41.61,21.21q-4.12,1.15-8.3,2a146.84,146.84,0,0,0,17.29,4.67c3.77.78,7.5,1.4,11.11,1.86,3.87.49,7.33.79,10.57.93l4,.18ZM375.37,200c0,.05,0,.12,0,.17S375.38,200.1,375.37,200Zm-25.52-45.5-.27.06ZM313.53,137h0Z"/></svg>