<?xml version="1.0" ?><svg data-name="Layer 1" id="Layer_1" viewBox="0 0 500 500" xmlns="http://www.w3.org/2000/svg"><defs><style>.cls-1{fill:#2d4875;}.cls-2{fill:#395a9a;}.cls-3{fill:#fff;}</style></defs><title/><circle class="cls-1" cx="250" cy="250" r="250"/><path class="cls-2" d="M453.65,250c0,88.38-56.31,163.56-135,191.75a203.62,203.62,0,0,1-61.06,11.75c-2.5.06-5,.13-7.56.13-112.5,0-203.69-91.19-203.69-203.63S137.53,46.34,250,46.34,453.65,137.53,453.65,250Z"/><path class="cls-3" d="M383.65,250.71c0,2.06-7.06,65.44-7.06,65.44-19.19-.06-34.75,0-53.94,0h-4v4.06q0,60.75,0,121.56a203.62,203.62,0,0,1-61.06,11.75V316.15h-3.94c-13.56,0-27.12-.06-40.69,0-2.19,0-3.38-.31-3.31-3,.06-19.94.06-39.81.06-59.75,0-.69.13-1.44.19-2.44h47.69v-3.87c.37-12-.37-24.12,1.44-35.87,3.5-23.62,15-43,34.75-57A65,65,0,0,1,332.47,142h51.12v65.13c-1.38.06-2.69.19-4,.19-15,.06-30,0-45.06,0-9.06,0-14.94,4.75-15.5,13.94-.56,9.69-.13,19.37-.13,29.5Z"/></svg>