<?xml version="1.0" ?><svg data-name="Layer 1" id="Layer_1" viewBox="0 0 500 500" xmlns="http://www.w3.org/2000/svg"><defs><style>.cls-1{fill:#50a82f;}.cls-2{fill:#59d037;}.cls-3{fill:#fff;}</style></defs><title/><circle class="cls-1" cx="250" cy="250" r="250"/><circle class="cls-2" cx="250" cy="250" r="203.65"/><path class="cls-3" d="M124.42,203.61V284.5h38.79q4.64,0,7.12,2.65a9.4,9.4,0,0,1,2.48,6.67,9.15,9.15,0,0,1-2.45,6.63q-2.45,2.54-7.15,2.54H117q-6.25,0-9-3.26t-2.74-10.53V203.61q0-6.82,2.61-10.23a8.23,8.23,0,0,1,6.86-3.41,8.5,8.5,0,0,1,7,3.38Q124.42,196.72,124.42,203.61Z"/><path class="cls-3" d="M163.21,306.12H117c-5.11,0-8.94-1.47-11.38-4.38s-3.47-6.88-3.47-12.54V203.61c0-5.3,1.07-9.27,3.25-12.13a12,12,0,0,1,18.78-.08c2.26,2.84,3.35,6.84,3.35,12.21v77.76h35.66c4,0,7.14,1.22,9.4,3.64a12.45,12.45,0,0,1,3.33,8.81,12.23,12.23,0,0,1-3.32,8.81C170.37,304.94,167.21,306.12,163.21,306.12Zm-48.45-113a5.08,5.08,0,0,0-4.38,2.19c-1.31,1.7-2,4.5-2,8.33V289.2c0,4,.69,7,2,8.52s3.41,2.15,6.59,2.15h46.2c2.27,0,3.87-.52,4.9-1.59a6.08,6.08,0,0,0,1.57-4.46,6.32,6.32,0,0,0-1.64-4.53c-1-1.12-2.63-1.66-4.83-1.66H121.3v-84c0-3.85-.67-6.65-2-8.33A5.41,5.41,0,0,0,114.76,193.1Z"/><path class="cls-3" d="M186.15,291.17V203.61q0-6.82,2.64-10.23a8.25,8.25,0,0,1,6.83-3.41,8.5,8.5,0,0,1,7,3.38q2.67,3.37,2.67,10.27v87.55q0,6.89-2.67,10.31a8.47,8.47,0,0,1-7,3.41,8.24,8.24,0,0,1-6.8-3.45Q186.14,298,186.15,291.17Z"/><path class="cls-3" d="M195.62,308a11.39,11.39,0,0,1-9.27-4.66c-2.24-2.87-3.33-6.86-3.33-12.18V203.61c0-5.31,1.08-9.28,3.3-12.15a12,12,0,0,1,18.74-.06c2.26,2.84,3.35,6.84,3.35,12.21v87.55c0,5.36-1.09,9.37-3.34,12.24A11.66,11.66,0,0,1,195.62,308Zm0-114.91a5.11,5.11,0,0,0-4.36,2.2c-1.32,1.7-2,4.5-2,8.32v87.55c0,3.81.68,6.63,2,8.35a5.45,5.45,0,0,0,8.87,0c1.33-1.7,2-4.52,2-8.38V203.61c0-3.85-.67-6.65-2-8.33A5.41,5.41,0,0,0,195.62,193.1Z"/><path class="cls-3" d="M251.61,203.47,288.4,269v-66.1q0-6.44,2.35-9.66A7.46,7.46,0,0,1,297.1,190a7.66,7.66,0,0,1,6.51,3.22q2.38,3.22,2.39,9.66v87.4q0,14.63-10.31,14.62A11.84,11.84,0,0,1,291,304a11.69,11.69,0,0,1-3.86-2.77,25.76,25.76,0,0,1-3.35-4.43q-1.55-2.54-3.09-5.19l-35.89-64.73V292q0,6.37-2.51,9.63a7.79,7.79,0,0,1-6.44,3.26,7.71,7.71,0,0,1-6.51-3.3q-2.45-3.3-2.45-9.59V206.27a28.22,28.22,0,0,1,1-8.56,11.9,11.9,0,0,1,4.06-5.57,9.9,9.9,0,0,1,6.12-2.16,9.26,9.26,0,0,1,4.41,1,10.89,10.89,0,0,1,3.22,2.66,27.41,27.41,0,0,1,2.84,4.32Q250.06,200.59,251.61,203.47Z"/><path class="cls-3" d="M295.68,308a14,14,0,0,1-10.77-4.61,29.1,29.1,0,0,1-3.75-5q-1.57-2.56-3.13-5.25L248,239v53c0,4.94-1.07,8.82-3.17,11.54a11.28,11.28,0,0,1-17.93-.09c-2.06-2.78-3.07-6.52-3.07-11.45V206.27a30.89,30.89,0,0,1,1.19-9.55,15.07,15.07,0,0,1,5.13-7.07A13.28,13.28,0,0,1,244,188.2a14.15,14.15,0,0,1,4.15,3.41,31,31,0,0,1,3.18,4.82l3,5.53L285.27,257V202.86c0-5,1-8.78,3-11.51a10.59,10.59,0,0,1,8.87-4.5,10.79,10.79,0,0,1,9,4.49c2,2.72,3,6.49,3,11.52v87.4C309.11,305.7,300.7,308,295.68,308Zm-54-93.21,41.74,75.31c1,1.69,2,3.41,3,5.08a22.82,22.82,0,0,0,2.94,3.9,7.83,7.83,0,0,0,6.25,2.67c2.15,0,7.18,0,7.18-11.5v-87.4c0-3.54-.61-6.24-1.77-7.8a4.79,4.79,0,0,0-7.82,0c-1.14,1.57-1.75,4.27-1.75,7.82v78l-45.65-81.47a24,24,0,0,0-2.5-3.83,7.62,7.62,0,0,0-2.3-1.9,7,7,0,0,0-7.16.91,8.77,8.77,0,0,0-3,4.14,25.5,25.5,0,0,0-.85,7.51V292c0,3.49.62,6.09,1.83,7.73a4.8,4.8,0,0,0,8,0c1.24-1.6,1.86-4.19,1.86-7.71Z"/><path class="cls-3" d="M389.17,209.23H346.06v27.28h39.69q4.38,0,6.54,2.31a8.6,8.6,0,0,1,2.16,6.1,8.93,8.93,0,0,1-2.13,6.18q-2.12,2.39-6.57,2.39H346.06V285.1h44.59q4.51,0,6.8,2.47a9.26,9.26,0,0,1,2.29,6.56,9,9,0,0,1-2.29,6.4q-2.29,2.47-6.8,2.47h-52q-6.25,0-9-3.26t-2.74-10.53V205.66a21.68,21.68,0,0,1,1.22-7.92,8.4,8.4,0,0,1,3.83-4.47,14,14,0,0,1,6.67-1.4h50.52q4.57,0,6.8,2.39a8.8,8.8,0,0,1,2.22,6.25,8.9,8.9,0,0,1-2.22,6.33Q393.74,209.22,389.17,209.23Z"/><path class="cls-3" d="M390.65,306.12h-52c-5.11,0-8.94-1.47-11.38-4.38s-3.47-6.88-3.47-12.54V205.66a24.46,24.46,0,0,1,1.45-9.08,11.47,11.47,0,0,1,5.25-6.06,17.14,17.14,0,0,1,8.15-1.78h50.52c3.94,0,7,1.14,9.09,3.38a13.12,13.12,0,0,1,0,16.85c-2.08,2.24-5.14,3.38-9.08,3.38h-40v21h36.57c3.8,0,6.77,1.11,8.82,3.3a11.65,11.65,0,0,1,3,8.24,12,12,0,0,1-2.92,8.26c-2,2.28-5,3.43-8.91,3.43H349.19V282h41.46c3.89,0,7,1.17,9.09,3.46a12.32,12.32,0,0,1,3.12,8.69,12.1,12.1,0,0,1-3.12,8.53C397.61,304.95,394.55,306.12,390.65,306.12ZM338.65,195a11.14,11.14,0,0,0-5.19,1,5.35,5.35,0,0,0-2.41,2.88,18.75,18.75,0,0,0-1,6.76V289.2c0,4,.69,7,2,8.53s3.41,2.14,6.59,2.14h52c2.12,0,3.59-.48,4.51-1.46a6,6,0,0,0,1.45-4.28,6.23,6.23,0,0,0-1.45-4.43c-.92-1-2.39-1.46-4.51-1.46H342.94V250.37h42.82c2,0,3.45-.45,4.24-1.34a5.89,5.89,0,0,0,1.34-4.1,5.54,5.54,0,0,0-1.32-4c-.81-.87-2.25-1.32-4.25-1.32H342.94V206.1h46.23c2.13,0,3.65-.47,4.51-1.4a5.85,5.85,0,0,0,1.39-4.2,5.77,5.77,0,0,0-1.38-4.12c-.86-.92-2.38-1.39-4.51-1.39Z"/></svg>